<svg xmlns="http://www.w3.org/2000/svg" width="2010" height="434" viewBox="0 0 2010 434" fill="none"><g clip-path="url(#clip0_78_23)"><path d="M304.773 -0.265625C305.697 -0.267538 306.62 -0.269452 307.571 -0.271423C309.516 -0.272779 311.461 -0.269128 313.405 -0.260742C316.359 -0.250058 319.312 -0.260647 322.266 -0.273437C324.164 -0.272115 326.063 -0.269552 327.961 -0.265625C328.833 -0.269673 329.705 -0.273722 330.604 -0.277893C335.649 -0.239924 340.226 0.309828 345.122 1.54514C347.419 2.10151 349.642 2.27142 352 2.375C359.846 2.99209 367.398 5.05243 375 7C376.062 7.27199 377.124 7.54398 378.219 7.82422C391.925 11.4626 391.925 11.4626 397 14C397 14.66 397 15.32 397 16C397.74 16.1354 398.48 16.2707 399.242 16.4102C409.939 18.6981 419.647 24.901 429.188 30.032C430.449 30.7057 431.721 31.3604 433 32C433 32.66 433 33.32 433 34C433.743 34.2887 434.485 34.5775 435.25 34.875C437.567 35.823 439.779 36.8485 442 38C442 38.66 442 39.32 442 40C443.65 40.66 445.3 41.32 447 42C447 42.66 447 43.32 447 44C447.835 44.4022 447.835 44.4022 448.688 44.8125C453.618 47.3441 457.09 50.061 461 54C462.784 55.6128 464.576 57.2169 466.375 58.8125C470.959 62.9605 475.036 67.2699 479 72C480.901 74.1152 482.805 76.2285 484.715 78.3359C486 80 486 80 486 82C486.66 82 487.32 82 488 82C489.205 83.3293 489.205 83.3293 490.531 85.1758C491.252 86.1706 491.252 86.1706 491.988 87.1855C492.487 87.8874 492.986 88.5893 493.5 89.3125C493.999 90.0028 494.498 90.6931 495.012 91.4043C501 99.7124 501 99.7124 501 103C501.66 103 502.32 103 503 103C503.398 103.808 503.797 104.616 504.207 105.449C504.737 106.518 505.267 107.586 505.812 108.688C506.335 109.743 506.857 110.799 507.395 111.887C508.375 113.787 509.402 115.666 510.508 117.496C514.688 124.51 517.984 132.092 520 140C520.464 141.297 520.944 142.589 521.438 143.875C523.096 148.209 524.571 152.586 526 157C526.24 157.72 526.479 158.44 526.726 159.182C528.909 166.033 530.118 172.899 531.188 180C531.365 181.131 531.542 182.261 531.725 183.426C533 191.649 533 191.649 533 194C534.288 193.998 535.576 193.996 536.904 193.993C549.015 193.973 561.126 193.958 573.237 193.948C579.464 193.943 585.691 193.936 591.918 193.925C597.922 193.914 603.926 193.908 609.93 193.905C612.227 193.903 614.523 193.9 616.819 193.894C620.023 193.887 623.227 193.886 626.431 193.886C627.391 193.883 628.35 193.879 629.339 193.876C630.207 193.877 631.075 193.878 631.969 193.88C632.728 193.879 633.487 193.878 634.268 193.877C636 194 636 194 637 195C637.099 196.55 637.131 198.104 637.133 199.656C637.134 200.596 637.135 201.536 637.137 202.504C637.133 203.493 637.129 204.481 637.125 205.5C637.129 206.489 637.133 207.477 637.137 208.496C637.135 209.436 637.134 210.376 637.133 211.344C637.131 212.646 637.131 212.646 637.129 213.975C637 216 637 216 636 217C632.834 217.095 629.69 217.126 626.523 217.114C625.031 217.114 625.031 217.114 623.508 217.114C620.202 217.113 616.896 217.105 613.59 217.098C611.304 217.096 609.019 217.094 606.734 217.093C600.705 217.09 594.677 217.08 588.648 217.069C582.502 217.058 576.355 217.054 570.209 217.049C558.139 217.038 546.07 217.021 534 217C534.008 218.157 534.015 219.314 534.023 220.507C534.029 222.045 534.035 223.584 534.041 225.123C534.049 226.263 534.049 226.263 534.058 227.427C534.075 233.417 533.541 239.16 532.5 245.062C532.285 246.378 532.285 246.378 532.066 247.721C531.723 249.816 531.363 251.908 531 254C529.41 253.843 527.82 253.685 526.23 253.527C525.345 253.44 524.46 253.352 523.548 253.261C517.804 252.672 512.531 251.659 507 250C499.523 247.801 499.523 247.801 491.875 246.375C489 246 489 246 488 245C485.839 244.615 483.67 244.271 481.5 243.938C470.932 242.206 460.575 239.549 450.193 236.957C442.232 234.977 434.272 233.192 426.212 231.656C423.362 231.074 420.603 230.378 417.812 229.562C412.089 227.935 406.295 226.812 400.45 225.725C395.853 224.848 391.367 223.861 386.886 222.507C366.727 216.666 346.418 216.978 325.593 217.053C321.428 217.067 317.266 217.046 313.102 216.991C287.092 216.652 263.306 218.419 238.176 225.357C232.221 226.992 226.234 228.243 220.169 229.397C216.09 230.173 212.05 231.085 208 232C207.134 232.165 206.267 232.33 205.375 232.5C203.492 232.897 201.63 233.395 199.78 233.928C194.315 235.478 188.791 236.744 183.259 238.032C181.268 238.496 179.279 238.965 177.289 239.434C170.683 240.981 164.079 242.414 157.395 243.58C154.038 244.169 150.709 244.856 147.375 245.562C146.186 245.811 144.998 246.06 143.773 246.316C141.108 246.72 141.108 246.72 140 248C137.398 248.541 134.804 249.038 132.188 249.5C128.096 250.235 124.031 250.977 120 252C117.44 252.556 114.879 253.098 112.312 253.625C111.623 253.772 110.934 253.919 110.225 254.07C108.492 254.425 106.746 254.718 105 255C100.072 250.072 101.279 233.742 101 227C101 223.7 101 220.4 101 217C68 217 35 217 1 217C-0.192194 214.616 -0.12916 213.123 -0.132812 210.465C-0.134102 209.573 -0.135391 208.682 -0.136719 207.764C-0.132852 206.831 -0.128984 205.898 -0.125 204.938C-0.128867 204.001 -0.132734 203.064 -0.136719 202.1C-0.13543 201.21 -0.134141 200.319 -0.132812 199.402C-0.131685 198.582 -0.130557 197.762 -0.129395 196.918C0 195 0 195 1 194C4.1356 193.905 7.24914 193.874 10.385 193.886C11.8629 193.886 11.8629 193.886 13.3706 193.886C16.6442 193.887 19.9178 193.895 23.1914 193.902C25.4544 193.904 27.7174 193.906 29.9804 193.907C35.9498 193.91 41.9191 193.92 47.8884 193.931C53.9744 193.942 60.0605 193.946 66.1465 193.951C78.0977 193.962 90.0488 193.979 102 194C102.101 192.763 102.101 192.763 102.205 191.5C102.294 190.418 102.383 189.337 102.475 188.222C102.564 187.15 102.652 186.077 102.743 184.973C103.529 175.893 105.26 167.44 108.098 158.777C108.831 156.522 109.428 154.298 110 152C112.027 145.527 114.2 139.184 117 133C117.262 132.386 117.523 131.773 117.793 131.141C124.116 116.452 131.48 100.216 142 88C142.66 88 143.32 88 144 88C144.33 86.68 144.66 85.36 145 84C145.66 84 146.32 84 147 84C147 83.01 147 82.02 147 81C148.622 79.2901 150.294 77.6265 152 76C152.557 75.2369 153.114 74.4737 153.688 73.6875C154.121 73.1306 154.554 72.5738 155 72C155.66 72 156.32 72 157 72C157.403 71.1101 157.403 71.1101 157.814 70.2021C159.003 67.9946 160.207 66.5346 161.969 64.7656C162.54 64.192 163.111 63.6184 163.699 63.0273C164.293 62.4408 164.888 61.8543 165.5 61.25C166.094 60.648 166.689 60.046 167.301 59.4258C167.872 58.8573 168.443 58.2888 169.031 57.7031C169.553 57.184 170.074 56.6648 170.611 56.1299C172 55 172 55 174 55C174.33 54.01 174.66 53.02 175 52C177.112 50.1753 179.21 48.4825 181.438 46.8125C182.036 46.3491 182.635 45.8857 183.252 45.4082C187.734 42 187.734 42 190 42C190 41.34 190 40.68 190 40C192.013 38.5256 194.01 37.1893 196.125 35.875C196.757 35.4776 197.388 35.0801 198.039 34.6707C200.019 33.4346 202.007 32.2142 204 31C204.897 30.4526 204.897 30.4526 205.812 29.894C213.179 25.4385 220.595 21.6847 228.551 18.4219C231.157 17.3475 233.705 16.2218 236.266 15.0469C241.216 12.838 246.271 11.1267 251.438 9.5C252.389 9.19957 253.34 8.89914 254.321 8.5896C260.477 6.68544 266.652 4.98429 272.938 3.5625C274.009 3.31693 274.009 3.31693 275.101 3.06641C278.326 2.37862 281.264 2.00202 284.566 2.02734C287.997 2.16881 287.997 2.16881 291.104 1.01489C295.646 -0.339061 300.064 -0.287382 304.773 -0.265625ZM229 44C228.022 44.5556 227.043 45.1112 226.035 45.6836C224.032 46.8414 222.035 48.0117 220.047 49.1953C217.905 50.4641 215.747 51.7067 213.578 52.9297C212.48 53.551 211.382 54.1723 210.25 54.8125C209.245 55.3758 208.239 55.9391 207.203 56.5195C206.476 57.0081 205.749 57.4966 205 58C205 58.66 205 59.32 205 60C204.475 60.2282 203.951 60.4563 203.41 60.6914C187.39 69.3896 174.596 84.7374 163.562 98.875C163.113 99.4472 162.663 100.019 162.199 100.609C159.765 103.473 159.765 103.473 159 107C158.34 107 157.68 107 157 107C157 107.99 157 108.98 157 110C156.34 110 155.68 110 155 110C153.081 113.499 151.165 116.999 149.25 120.5C148.711 121.482 148.172 122.465 147.617 123.477C138.466 140.216 131.411 157.702 128.402 176.645C128.017 178.899 127.483 181.047 126.875 183.25C126.003 186.988 125.936 190.18 126 194C139.021 194.023 152.042 194.041 165.063 194.052C171.109 194.057 177.154 194.064 183.2 194.075C189.029 194.086 194.858 194.092 200.687 194.095C202.916 194.097 205.145 194.1 207.375 194.106C210.485 194.113 213.596 194.114 216.707 194.114C217.638 194.117 218.57 194.121 219.529 194.124C223.586 194.532 223.586 194.532 227 193C227.628 189.543 228.192 186.083 228.719 182.609C229.533 177.639 230.874 173.566 233 169C233.412 167.804 233.825 166.607 234.25 165.375C236.87 158.292 240.495 151.122 245.223 145.23C247.208 143.215 247.208 143.215 247 141C247.99 140.67 248.98 140.34 250 140C251.575 138.37 251.575 138.37 253.125 136.375C257.45 131.268 262.551 126.15 269 124C269 123.34 269 122.68 269 122C269.99 122 270.98 122 272 122C272 121.34 272 120.68 272 120C272.541 119.883 273.083 119.765 273.641 119.645C276.453 118.876 279.052 117.793 281.75 116.688C309.943 105.959 335.454 108.869 363 120C363 120.66 363 121.32 363 122C363.736 122.375 364.472 122.75 365.23 123.137C370.544 125.923 375.056 128.38 379 133C380 134.167 381 135.334 382 136.5C382.756 137.399 382.756 137.399 383.527 138.316C385.118 140.187 385.118 140.187 387.562 142.438C391.327 146.395 394.268 150.805 396 156C396.66 156 397.32 156 398 156C398.273 156.853 398.273 156.853 398.551 157.723C399.761 161.44 400.989 165.106 402.562 168.688C405.219 174.809 406.523 180.62 407.535 187.195C407.997 190.218 407.997 190.218 409 194C441.67 194 474.34 194 508 194C508.922 189.389 508.811 187.589 507.594 183.266C506.972 180.893 506.574 178.547 506.188 176.125C502.578 155.923 494.829 137.878 485 120C484.362 118.827 483.726 117.654 483.09 116.48C481.734 113.983 480.371 111.489 479 109C478.34 109 477.68 109 477 109C476.718 108.415 476.436 107.83 476.145 107.228C471.741 98.6582 465.774 89.6937 458.145 83.7578C455.296 81.423 452.804 78.7701 450.25 76.125C445.307 71.0565 440.073 66.8302 434.301 62.7422C432 61 432 61 431 59C429.364 57.95 427.691 56.9582 426 56C425.112 55.4792 424.224 54.9584 423.309 54.4219C421.295 53.2492 419.28 52.0774 417.266 50.9062C415.104 49.6445 412.948 48.3738 410.797 47.0938C409.771 46.4853 408.745 45.8769 407.688 45.25C406.763 44.6983 405.839 44.1466 404.887 43.5781C397.818 39.714 390.183 37.1691 382.625 34.4375C381.54 34.0385 380.454 33.6396 379.336 33.2285C373.269 31.0339 367.33 29.2332 361 28C359.562 27.6709 358.124 27.338 356.688 27C343.313 24.046 330.119 22.8249 316.438 22.875C315.379 22.8711 314.32 22.8673 313.229 22.8633C285.043 22.898 253.566 30.0186 229 44Z" fill="#253C4A"></path><path d="M721 81C785.331 81 785.331 81 792.738 86.2266C794.897 87.6371 796.455 88.5192 799 89C801.889 87.8399 804.177 86.3647 806.703 84.5508C826.148 71.4221 853.538 81 877 81C877 169.77 877 258.54 877 350C872.594 352.203 866.614 351.186 861.714 351.185C859.509 351.188 857.303 351.206 855.098 351.225C853.701 351.228 852.303 351.23 850.906 351.23C849.631 351.235 848.355 351.239 847.041 351.243C844 351 844 351 842 349C841.806 345.879 841.74 342.846 841.759 339.724C841.758 338.751 841.756 337.777 841.754 336.774C841.751 333.491 841.762 330.208 841.773 326.925C841.774 324.58 841.773 322.235 841.772 319.89C841.771 313.506 841.783 307.122 841.797 300.738C841.808 294.748 841.81 288.757 841.813 282.767C841.817 270.899 841.83 259.032 841.849 247.165C841.867 235.635 841.882 224.105 841.89 212.575C841.891 211.864 841.891 211.154 841.892 210.422C841.894 206.858 841.897 203.295 841.899 199.731C841.92 170.154 841.955 140.577 842 111C839.289 111.06 836.584 111.148 833.875 111.25C832.734 111.271 832.734 111.271 831.57 111.293C826.335 111.519 823.019 112.351 819 116C815.811 121.446 815.579 126.152 815.653 132.363C815.652 133.286 815.65 134.209 815.649 135.159C815.649 138.24 815.67 141.321 815.691 144.401C815.695 146.614 815.698 148.827 815.7 151.04C815.706 155.799 815.721 160.558 815.744 165.318C815.78 172.838 815.794 180.358 815.805 187.879C815.822 198.417 815.848 208.955 815.884 219.494C815.887 220.496 815.887 220.496 815.89 221.518C815.899 224.226 815.908 226.933 815.917 229.641C815.942 237.103 815.965 244.566 815.986 252.028C815.988 252.696 815.99 253.365 815.992 254.054C816.024 265.192 816.047 276.331 816.066 287.47C816.08 294.952 816.103 302.433 816.136 309.914C816.154 314.559 816.164 319.204 816.171 323.848C816.177 326.008 816.186 328.168 816.198 330.327C816.215 333.266 816.219 336.205 816.22 339.145C816.228 340.006 816.236 340.868 816.244 341.756C816.228 347.658 816.228 347.658 814 351C810.959 351.356 810.959 351.356 807.094 351.328C806.073 351.325 806.073 351.325 805.032 351.322C803.592 351.316 802.153 351.302 800.714 351.281C798.509 351.25 796.304 351.24 794.098 351.234C783.327 351.164 783.327 351.164 781 350C780.997 348.82 780.993 347.64 780.99 346.425C780.911 318.418 780.822 290.411 780.72 262.404C780.707 258.957 780.695 255.51 780.683 252.063C780.68 251.377 780.678 250.69 780.675 249.983C780.635 238.872 780.603 227.76 780.572 216.648C780.541 205.246 780.503 193.844 780.457 182.442C780.432 176.038 780.41 169.634 780.397 163.229C780.384 157.203 780.362 151.177 780.333 145.151C780.324 142.938 780.318 140.725 780.316 138.512C780.312 135.492 780.297 132.473 780.278 129.453C780.28 128.576 780.282 127.698 780.284 126.794C780.242 122.134 779.788 118.384 778 114C777.01 114 776.02 114 775 114C775 113.34 775 112.68 775 112C768.07 111.67 761.14 111.34 754 111C754.002 113.992 754.004 116.984 754.007 120.067C754.027 147.475 754.042 174.883 754.051 202.291C754.052 205.879 754.054 209.468 754.055 213.057C754.055 213.771 754.055 214.486 754.056 215.222C754.06 226.806 754.068 238.39 754.077 249.974C754.086 261.852 754.092 273.73 754.094 285.607C754.095 292.282 754.098 298.957 754.106 305.632C754.112 311.907 754.115 318.182 754.113 324.457C754.113 326.767 754.115 329.078 754.119 331.388C754.124 334.528 754.123 337.667 754.12 340.806C754.123 341.733 754.126 342.66 754.129 343.616C754.114 349.886 754.114 349.886 753 351C742.44 351 731.88 351 721 351C721 261.9 721 172.8 721 81Z" fill="#243A49"></path><path d="M1582 81C1643 81 1643 81 1652 84C1652 84.66 1652 85.32 1652 86C1653.32 86 1654.64 86 1656 86C1656 86.66 1656 87.32 1656 88C1657.65 88.33 1659.3 88.66 1661 89C1661 89.66 1661 90.32 1661 91C1661.59 91.0722 1662.18 91.1444 1662.78 91.2188C1667.91 93.026 1670.77 99.7517 1673.27 104.312C1678.88 116.083 1678.4 128.635 1678.51 141.383C1678.52 142.357 1678.53 143.33 1678.54 144.334C1678.59 149.478 1678.62 154.622 1678.65 159.767C1678.67 165.065 1678.75 170.36 1678.84 175.657C1678.9 179.75 1678.92 183.841 1678.93 187.934C1678.94 189.887 1678.97 191.84 1679.01 193.792C1679.32 208.96 1679.32 208.96 1676.11 213.915C1673.82 216.005 1671.7 217.509 1669 219C1668.08 219.555 1667.15 220.111 1666.2 220.683C1665.48 221.118 1664.75 221.552 1664 222C1664.33 223.32 1664.66 224.64 1665 226C1665.66 226 1666.32 226 1667 226C1668.29 227.426 1668.29 227.426 1669.62 229.312C1670.07 229.927 1670.52 230.542 1670.98 231.176C1672 233 1672 233 1672 236C1672.66 236.33 1673.32 236.66 1674 237C1680.25 246.946 1678.5 260.179 1678.39 271.387C1678.38 273.658 1678.38 275.929 1678.37 278.2C1678.36 284.146 1678.32 290.092 1678.27 296.039C1678.23 302.119 1678.22 308.199 1678.2 314.279C1678.15 326.186 1678.08 338.093 1678 350C1675.04 351.481 1672.36 351.13 1669.06 351.133C1668.38 351.134 1667.69 351.135 1666.99 351.136C1665.55 351.136 1664.1 351.135 1662.66 351.13C1660.44 351.125 1658.23 351.13 1656.01 351.137C1654.61 351.136 1653.21 351.135 1651.81 351.133C1650.53 351.132 1649.25 351.131 1647.93 351.129C1645 351 1645 351 1644 350C1643.89 346.927 1643.85 343.876 1643.84 340.802C1643.84 339.836 1643.83 338.87 1643.83 337.875C1643.82 335.769 1643.81 333.664 1643.8 331.558C1643.79 328.225 1643.77 324.892 1643.75 321.56C1643.69 312.081 1643.63 302.602 1643.6 293.122C1643.58 287.331 1643.54 281.54 1643.5 275.749C1643.48 273.54 1643.47 271.332 1643.47 269.123C1643.47 266.03 1643.44 262.938 1643.42 259.845C1643.42 258.933 1643.42 258.021 1643.43 257.082C1643.33 250.023 1641.62 245.179 1636.5 240.125C1630.88 234.703 1624.48 230.321 1618 226C1617.67 266.92 1617.34 307.84 1617 350C1614.05 351.477 1611.39 351.13 1608.09 351.133C1607.41 351.134 1606.73 351.135 1606.03 351.136C1604.59 351.136 1603.15 351.135 1601.71 351.13C1599.51 351.125 1597.3 351.13 1595.1 351.137C1593.7 351.136 1592.3 351.135 1590.91 351.133C1589.63 351.132 1588.36 351.131 1587.04 351.129C1584 351 1584 351 1582 350C1582 261.23 1582 172.46 1582 81ZM1617 111C1616.84 120.953 1616.71 130.906 1616.64 140.86C1616.6 145.482 1616.55 150.103 1616.47 154.725C1616.4 159.186 1616.35 163.646 1616.34 168.108C1616.32 169.809 1616.3 171.51 1616.26 173.211C1616.21 175.597 1616.2 177.978 1616.21 180.364C1616.18 181.066 1616.15 181.768 1616.13 182.491C1616.17 185.419 1616.47 187.451 1618.54 189.582C1621.94 192.201 1621.94 192.201 1626 193C1626 193.66 1626 194.32 1626 195C1626.99 195.33 1627.98 195.66 1629 196C1630.33 197.333 1631.67 198.667 1633 200C1634.89 201.296 1636.8 202.546 1638.75 203.75C1639.73 204.364 1640.72 204.977 1641.73 205.609C1642.86 206.298 1642.86 206.298 1644 207C1644.09 195.891 1644.16 184.781 1644.21 173.672C1644.23 168.513 1644.26 163.354 1644.3 158.196C1644.35 153.216 1644.37 148.237 1644.38 143.257C1644.39 141.358 1644.4 139.46 1644.42 137.561C1644.45 134.899 1644.46 132.238 1644.45 129.576C1644.47 128.793 1644.48 128.01 1644.5 127.204C1644.46 122.024 1643.5 119.049 1640 115C1635.1 110.713 1631.32 110.477 1625.12 110.75C1624.34 110.768 1623.56 110.786 1622.75 110.805C1620.83 110.851 1618.92 110.923 1617 111Z" fill="#263D4A"></path><path d="M1372 81C1376.68 80.9754 1381.36 80.9572 1386.04 80.9451C1387.64 80.94 1389.23 80.9332 1390.83 80.9246C1393.11 80.9125 1395.4 80.9068 1397.68 80.9024C1398.4 80.8972 1399.12 80.892 1399.86 80.8867C1401.57 80.8865 1403.29 80.9381 1405 81C1406 82 1406 82 1406.12 83.7461C1406.11 84.5117 1406.11 85.2773 1406.1 86.0661C1406.1 86.9423 1406.1 87.8185 1406.1 88.7212C1406.09 89.69 1406.09 90.6588 1406.08 91.657C1406.07 93.7608 1406.07 95.8645 1406.06 97.9683C1406.06 99.0902 1406.05 100.212 1406.05 101.368C1406.03 107.285 1406.04 113.202 1406.05 119.119C1406.07 126.66 1406.07 134.201 1406.02 141.741C1405.99 147.825 1406 153.907 1406.03 159.991C1406.03 162.311 1406.02 164.631 1406 166.951C1405.97 170.2 1405.99 173.446 1406.02 176.696C1406 177.655 1405.97 178.613 1405.95 179.601C1406.04 184.697 1406.04 184.697 1408.71 188.863C1410.74 190.401 1412.81 191.702 1415 193C1416.32 193.984 1417.64 194.983 1418.94 196C1426.18 201.455 1426.18 201.455 1434 206C1434 164.75 1434 123.5 1434 81C1444.89 81 1455.78 81 1467 81C1468.57 82.5687 1468.13 84.1067 1468.13 86.2873C1468.14 87.2181 1468.14 88.149 1468.14 89.108C1468.14 90.1426 1468.14 91.1772 1468.14 92.2432C1468.14 93.3329 1468.15 94.4227 1468.15 95.5454C1468.16 99.2275 1468.16 102.91 1468.16 106.592C1468.17 109.219 1468.17 111.846 1468.18 114.474C1468.19 121.633 1468.2 128.792 1468.2 135.951C1468.2 140.417 1468.21 144.883 1468.21 149.35C1468.22 161.705 1468.23 174.061 1468.24 186.416C1468.24 187.603 1468.24 187.603 1468.24 188.814C1468.24 190.004 1468.24 190.004 1468.24 191.218C1468.24 192.825 1468.24 194.433 1468.24 196.04C1468.24 196.838 1468.24 197.635 1468.24 198.457C1468.25 211.385 1468.26 224.313 1468.29 237.242C1468.31 250.501 1468.32 263.761 1468.32 277.021C1468.32 284.471 1468.33 291.921 1468.35 299.372C1468.36 306.376 1468.37 313.379 1468.36 320.383C1468.36 322.961 1468.36 325.538 1468.37 328.116C1468.38 331.621 1468.38 335.125 1468.37 338.63C1468.38 340.178 1468.38 340.178 1468.39 341.758C1468.39 342.692 1468.38 343.625 1468.37 344.587C1468.37 345.397 1468.37 346.206 1468.37 347.041C1468.25 347.687 1468.13 348.334 1468 349C1464.27 351.484 1462.37 351.232 1457.93 351.195C1457.24 351.193 1456.56 351.19 1455.85 351.187C1453.67 351.176 1451.49 351.15 1449.31 351.125C1447.83 351.115 1446.35 351.106 1444.87 351.098C1441.25 351.076 1437.62 351.041 1434 351C1434 350.454 1434.01 349.908 1434.01 349.346C1434.08 336.05 1434.11 322.754 1434.08 309.458C1434.06 303.027 1434.07 296.598 1434.11 290.168C1434.15 283.962 1434.14 277.758 1434.11 271.553C1434.1 269.185 1434.11 266.818 1434.14 264.45C1434.17 261.133 1434.15 257.821 1434.11 254.503C1434.14 253.524 1434.16 252.546 1434.18 251.537C1434.06 246.237 1434.06 246.237 1431.03 242.09C1428.74 240.553 1426.45 239.254 1424 238C1423.01 237.34 1422.02 236.68 1421 236C1421 235.34 1421 234.68 1421 234C1420.34 233.794 1419.68 233.588 1419 233.375C1415.51 231.777 1412.78 229.694 1409.77 227.34C1408.03 225.94 1408.03 225.94 1406 225C1406 225.631 1406 226.262 1406.01 226.913C1406.05 242.26 1406.08 257.608 1406.1 272.956C1406.11 280.378 1406.13 287.8 1406.15 295.222C1406.17 301.691 1406.18 308.159 1406.19 314.627C1406.19 318.052 1406.2 321.478 1406.21 324.904C1406.23 328.725 1406.23 332.547 1406.23 336.368C1406.23 337.508 1406.24 338.647 1406.25 339.821C1406.25 340.86 1406.24 341.899 1406.24 342.97C1406.24 343.874 1406.24 344.778 1406.25 345.71C1406 348 1406 348 1404 351C1400.94 351.356 1400.94 351.356 1397.06 351.328C1396.03 351.325 1396.03 351.325 1394.99 351.322C1393.55 351.316 1392.1 351.302 1390.66 351.281C1388.44 351.25 1386.23 351.24 1384.01 351.234C1373.16 351.163 1373.16 351.163 1372 350C1371.9 348.561 1371.88 347.118 1371.88 345.676C1371.88 344.737 1371.87 343.798 1371.87 342.83C1371.87 341.787 1371.88 340.743 1371.88 339.668C1371.88 338.568 1371.88 337.469 1371.88 336.336C1371.88 332.622 1371.88 328.907 1371.89 325.193C1371.89 322.543 1371.89 319.892 1371.89 317.242C1371.89 311.52 1371.89 305.798 1371.89 300.077C1371.9 291.804 1371.91 283.531 1371.91 275.258C1371.91 261.837 1371.92 248.416 1371.92 234.995C1371.93 221.955 1371.94 208.915 1371.95 195.874C1371.95 195.071 1371.95 194.268 1371.95 193.44C1371.95 189.411 1371.95 185.381 1371.95 181.352C1371.96 147.901 1371.98 114.451 1372 81Z" fill="#243A48"></path><path d="M1179.25 80.8321C1179.97 80.8287 1180.7 80.8254 1181.45 80.822C1182.99 80.8169 1184.53 80.8146 1186.06 80.8147C1188.42 80.8125 1190.78 80.7944 1193.14 80.7754C1194.64 80.7725 1196.13 80.7705 1197.62 80.7696C1198.68 80.7588 1198.68 80.7588 1199.77 80.7478C1204.77 80.7712 1204.77 80.7712 1207 83C1207.37 85.0366 1207.37 85.0366 1207.54 87.5095C1207.96 92.6593 1208.63 97.7364 1209.38 102.848C1209.5 103.744 1209.63 104.641 1209.77 105.565C1210.18 108.398 1210.59 111.23 1211 114.063C1211.41 116.898 1211.82 119.734 1212.23 122.571C1212.49 124.325 1212.74 126.079 1213 127.833C1213.69 132.608 1214.28 137.375 1214.73 142.177C1214.92 144.094 1214.92 144.094 1216 146C1216.2 147.6 1216.37 149.205 1216.5 150.813C1216.79 154.281 1217.29 157.594 1218 161C1219.33 168.497 1220.44 176.019 1221.5 183.559C1222.1 187.716 1222.79 191.855 1223.5 195.996C1224.03 199.201 1224.52 202.412 1225 205.625C1225.57 209.383 1226.2 213.097 1227 216.813C1228.44 223.807 1229.18 230.911 1230 238C1230.09 238.754 1230.18 239.509 1230.27 240.286C1230.35 241.049 1230.44 241.812 1230.54 242.598C1230.67 243.733 1230.67 243.733 1230.8 244.89C1230.97 246.34 1231.14 247.79 1231.3 249.24C1231.76 253.185 1232.32 257.089 1233 261C1233.15 261.932 1233.31 262.864 1233.46 263.824C1234.28 268.789 1235.13 273.743 1236.06 278.688C1236.81 282.76 1237.37 286.807 1237.75 290.93C1238.04 293.322 1238.51 295.642 1239 298C1240.14 303.895 1241.18 309.755 1241.75 315.734C1242.26 320.389 1242.99 325.01 1243.75 329.629C1243.95 330.84 1243.95 330.84 1244.15 332.076C1244.43 333.738 1244.7 335.4 1244.98 337.061C1245.69 341.41 1246.27 345.576 1246 350C1243.31 352.686 1235.7 351.318 1231.84 351.35C1230.37 351.367 1228.89 351.394 1227.42 351.432C1225.29 351.487 1223.17 351.509 1221.04 351.523C1219.76 351.543 1218.49 351.563 1217.17 351.584C1214 351 1214 351 1212.09 348.626C1210.95 345.868 1210.57 343.785 1210.44 340.813C1210.14 336.304 1209.51 332.074 1208.5 327.672C1208 325 1208 325 1207.78 321.766C1207.27 315.188 1207.27 315.188 1204 309.641C1201.43 307.565 1198.79 305.768 1196 304C1194.35 302.838 1192.7 301.672 1191.06 300.5C1190.25 299.942 1189.44 299.384 1188.61 298.809C1184.01 295.62 1179.51 292.302 1175 289C1174.82 290.468 1174.82 290.468 1174.63 291.965C1173.12 303.877 1173.12 303.877 1172 308.438C1171.02 312.504 1170.5 316.602 1170 320.75C1169.92 321.44 1169.83 322.129 1169.75 322.84C1169.66 323.528 1169.58 324.217 1169.5 324.926C1169.05 328.601 1168.58 332.272 1168.06 335.938C1167.93 336.895 1167.8 337.853 1167.66 338.84C1166.79 343.019 1165.42 346.978 1164 351C1159.62 351.025 1155.24 351.043 1150.87 351.055C1149.38 351.06 1147.89 351.067 1146.4 351.075C1144.26 351.088 1142.12 351.093 1139.98 351.098C1138.69 351.103 1137.4 351.108 1136.07 351.114C1133 351 1133 351 1131 350C1131.12 347.478 1131.24 344.958 1131.38 342.438C1131.41 341.733 1131.44 341.029 1131.47 340.303C1131.73 335.604 1132.64 331.529 1134 327C1134.22 325.235 1134.39 323.463 1134.5 321.688C1134.77 318.133 1135.19 314.735 1135.94 311.25C1137.11 305.796 1137.78 300.303 1138.5 294.773C1140.34 280.99 1140.34 280.99 1142 276C1142.28 273.774 1142.52 271.544 1142.75 269.313C1143.88 258.954 1145.57 248.681 1147.24 238.398C1148.27 231.976 1149.25 225.583 1149.78 219.098C1150.11 215.972 1150.8 212.939 1151.46 209.867C1152.38 204.954 1152.94 199.988 1153.54 195.027C1154 192 1154 192 1155 191C1155.21 189.13 1155.37 187.253 1155.5 185.375C1155.95 179.582 1156.4 174.027 1158.06 168.438C1159.12 165.142 1159.12 165.142 1159 162.188C1159 159.461 1159.26 157.456 1159.84 154.828C1161.21 148.174 1162.22 141.467 1163.23 134.751C1163.56 132.57 1163.9 130.389 1164.23 128.209C1165.29 121.254 1166.26 114.322 1166.78 107.3C1167.09 104.044 1167.77 100.894 1168.46 97.6992C1169.33 93.3568 1169.92 88.9736 1170.54 84.5899C1171.44 79.5388 1174.9 80.8389 1179.25 80.8321ZM1188 196C1187.81 197.949 1187.81 197.949 1187.62 199.938C1187.28 203.048 1186.81 206.024 1186.06 209.063C1184.84 214.183 1184.28 219.368 1183.7 224.592C1183.1 229.799 1183.1 229.799 1182 232C1179.61 243.435 1179.61 243.435 1180 255C1183 259.256 1187.47 261.785 1191.82 264.57C1193.95 265.966 1195.98 267.45 1198 269C1198.99 268.505 1198.99 268.505 1200 268C1199.55 264.187 1199.09 260.374 1198.62 256.563C1198.5 255.493 1198.37 254.424 1198.24 253.322C1197.56 247.763 1196.71 242.355 1195.42 236.906C1194.88 234.443 1194.66 232.015 1194.5 229.5C1194.17 225.171 1193.43 221.135 1192.4 216.922C1191.91 214.59 1192 212.377 1192 210C1191.35 207.662 1190.68 205.329 1190 203C1189.63 200.672 1189.29 198.34 1189 196C1188.67 196 1188.34 196 1188 196Z" fill="#243B49"></path><path d="M1725 81C1735.89 81 1746.78 81 1758 81C1759.92 88.0516 1761.39 93.9252 1762 101C1762.48 104.764 1763.09 108.455 1763.88 112.164C1765.24 118.962 1766.23 125.817 1767.23 132.677C1767.56 134.93 1767.9 137.183 1768.23 139.436C1769.28 146.538 1770.25 153.62 1770.78 160.785C1771 162.984 1771.41 165.043 1771.94 167.188C1773.15 172.176 1773.71 177.238 1774.3 182.329C1774.72 185.93 1775.26 189.452 1776 193C1776.18 194.352 1776.35 195.706 1776.5 197.062C1776.88 200.676 1776.88 200.676 1777.47 202.859C1778.15 205.615 1778.53 208.379 1778.94 211.188C1779.51 215.027 1780.14 218.793 1781.06 222.562C1781.83 225.821 1782.19 228.954 1782.41 232.293C1783 239.844 1784.22 247.281 1785.44 254.75C1785.88 257.453 1786.31 260.156 1786.75 262.859C1786.85 263.522 1786.96 264.184 1787.07 264.866C1787.96 270.548 1788.69 276.246 1789.33 281.962C1789.73 285.598 1789.73 285.598 1791 289C1791.28 290.666 1791.51 292.34 1791.72 294.016C1791.85 295.02 1791.97 296.024 1792.11 297.059C1792.24 298.112 1792.37 299.165 1792.5 300.25C1793.6 309.147 1793.6 309.147 1795 318C1796.99 329.687 1796.99 329.687 1797.56 334.438C1797.93 337.85 1797.93 337.85 1798.56 340.562C1799.13 343.745 1799.12 346.775 1799 350C1796.53 352.475 1790.46 351.173 1786.99 351.186C1786.26 351.185 1785.54 351.185 1784.79 351.185C1782.58 351.187 1780.36 351.206 1778.15 351.225C1776.74 351.228 1775.34 351.23 1773.94 351.23C1772.66 351.235 1771.38 351.239 1770.06 351.243C1767 351 1767 351 1765 349C1764.44 346.637 1764.44 346.637 1764 343.688C1763.75 342.075 1763.75 342.075 1763.5 340.43C1763.34 339.298 1763.17 338.166 1763 337C1762.74 335.333 1762.74 335.333 1762.46 333.633C1761.69 328.757 1760.97 323.921 1760.56 319C1760.13 315.262 1759.53 312.925 1757 310C1754.67 308.345 1752.31 306.81 1749.86 305.332C1749.25 304.892 1748.63 304.453 1748 304C1748 303.34 1748 302.68 1748 302C1747.34 301.786 1746.67 301.572 1745.99 301.352C1741.98 299.536 1738.69 297.018 1735.19 294.375C1734.49 293.859 1733.8 293.344 1733.09 292.812C1731.39 291.547 1729.69 290.274 1728 289C1725.87 302.267 1725.87 302.267 1723.94 315.562C1723.3 320.165 1722.47 324.674 1721.5 329.215C1721.09 331.507 1720.79 333.754 1720.54 336.066C1720.46 336.787 1720.38 337.507 1720.29 338.249C1720.14 339.683 1720 341.119 1719.87 342.556C1719.35 347.468 1719.35 347.468 1717.88 349.695C1715.03 351.67 1712.65 351.354 1709.21 351.328C1708.56 351.326 1707.9 351.324 1707.22 351.322C1705.84 351.316 1704.45 351.302 1703.07 351.281C1700.94 351.25 1698.82 351.24 1696.69 351.234C1686.33 351.164 1686.33 351.164 1684 350C1684.67 341.448 1685.77 332.988 1687 324.5C1687.18 323.239 1687.36 321.979 1687.54 320.68C1687.71 319.476 1687.88 318.272 1688.06 317.031C1688.22 315.944 1688.37 314.857 1688.54 313.736C1689 311 1689 311 1690 308C1690.3 305.136 1690.51 302.271 1690.72 299.398C1691 297 1691 297 1692 296C1692.21 294.192 1692.37 292.378 1692.5 290.562C1692.89 285.22 1692.89 285.22 1694 283C1694.31 279.887 1694.51 276.774 1694.72 273.652C1695 271 1695 271 1696 270C1696.21 268.213 1696.37 266.42 1696.5 264.625C1696.73 261.48 1697 259.004 1698 256C1698.33 253.779 1698.62 251.552 1698.9 249.324C1699.6 243.854 1700.38 238.403 1701.25 232.957C1701.41 231.953 1701.41 231.953 1701.58 230.929C1702.01 228.203 1702.45 225.478 1702.9 222.753C1704.17 214.904 1705.28 207.111 1705.77 199.167C1706 197 1706 197 1707 196C1707.19 194.358 1707.32 192.711 1707.44 191.062C1707.74 187.407 1708.16 183.896 1708.94 180.312C1710.18 174.535 1710.84 168.694 1711.54 162.832C1712.75 152.835 1712.75 152.835 1714 148.688C1715.06 144.768 1715.46 141.076 1715.75 137.039C1716 135 1716 135 1717 134C1717.31 131.374 1717.58 128.758 1717.81 126.125C1718.64 117.565 1719.8 109.069 1721.06 100.562C1721.24 99.3838 1721.41 98.2051 1721.59 96.9907C1722.42 91.5067 1723.24 86.2678 1725 81ZM1741 199C1739.28 200.719 1739.67 203.092 1739.5 205.438C1739.11 210.78 1739.11 210.78 1738 213C1736.41 221.234 1735.49 229.629 1734.38 237.938C1734.24 238.932 1734.1 239.927 1733.97 240.952C1732.34 249.848 1732.34 249.848 1735 258C1735.99 258 1736.98 258 1738 258C1738 258.66 1738 259.32 1738 260C1740.34 261.755 1740.34 261.755 1743.25 263.5C1744.22 264.108 1745.2 264.717 1746.2 265.344C1748.44 266.667 1750.66 267.884 1753 269C1752.86 266.687 1752.71 264.375 1752.56 262.062C1752.48 260.775 1752.4 259.487 1752.32 258.16C1752.35 255.14 1752.35 255.14 1751 254C1750.79 252.255 1750.63 250.503 1750.5 248.75C1750.22 245.083 1749.76 241.597 1749 238C1748.68 236.105 1748.37 234.209 1748.06 232.312C1747.44 228.498 1746.75 224.717 1745.94 220.938C1745.2 217.371 1744.78 213.882 1744.5 210.25C1744.19 206.227 1743.53 202.771 1742 199C1741.67 199 1741.34 199 1741 199Z" fill="#243B49"></path><path d="M1810.39 80.8389C1811.54 80.8293 1812.69 80.8197 1813.88 80.8098C1815.76 80.8034 1815.76 80.8034 1817.69 80.7969C1818.97 80.7912 1820.26 80.7855 1821.59 80.7796C1824.32 80.7691 1827.05 80.7632 1829.79 80.7598C1833.27 80.7543 1836.75 80.7304 1840.23 80.7018C1843.57 80.6785 1846.91 80.6767 1850.25 80.6719C1851.49 80.6595 1852.73 80.6472 1854.01 80.6345C1867.28 80.6683 1877.6 84.8334 1887.59 93.5703C1890.04 96.0527 1891 97.4804 1891 101C1891.66 101 1892.32 101 1893 101C1893.63 102.373 1894.25 103.749 1894.88 105.125C1895.22 105.891 1895.57 106.656 1895.93 107.445C1898.1 112.626 1899.25 116.934 1899.26 122.581C1899.27 123.87 1899.27 125.158 1899.28 126.486C1899.27 127.881 1899.27 129.277 1899.27 130.672C1899.27 132.119 1899.27 133.566 1899.27 135.013C1899.27 138.043 1899.27 141.072 1899.26 144.102C1899.25 147.959 1899.26 151.816 1899.27 155.674C1899.28 158.663 1899.27 161.652 1899.27 164.641C1899.27 166.062 1899.27 167.482 1899.27 168.903C1899.3 180.426 1898.64 189.845 1893 200C1892.34 200 1891.68 200 1891 200C1890.94 200.536 1890.88 201.072 1890.81 201.625C1886.77 213.433 1869.98 222.406 1860.09 228.914C1856.74 231.174 1853.56 233.582 1850.38 236.062C1848.25 237.709 1846.13 239.355 1844 241C1843.25 241.597 1842.5 242.194 1841.73 242.809C1840 244 1840 244 1838 244C1838 244.545 1838 245.091 1838 245.653C1838.02 258.905 1838.04 272.158 1838.05 285.41C1838.06 291.819 1838.06 298.228 1838.08 304.636C1838.09 310.816 1838.09 316.995 1838.09 323.174C1838.1 325.537 1838.1 327.9 1838.11 330.264C1838.11 333.561 1838.11 336.858 1838.11 340.156C1838.12 341.144 1838.12 342.131 1838.12 343.149C1838.12 344.042 1838.12 344.935 1838.12 345.856C1838.12 346.636 1838.12 347.417 1838.12 348.221C1838 350 1838 350 1837 351C1834.62 351.088 1832.28 351.115 1829.9 351.098C1828.84 351.096 1828.84 351.096 1827.75 351.093C1825.48 351.088 1823.21 351.075 1820.94 351.062C1819.4 351.057 1817.86 351.053 1816.33 351.049C1812.55 351.038 1808.78 351.021 1805 351C1804.05 348.159 1803.87 346.423 1803.87 343.479C1803.87 342.082 1803.87 342.082 1803.87 340.655C1803.87 339.63 1803.87 338.604 1803.87 337.548C1803.87 336.459 1803.87 335.371 1803.87 334.25C1803.86 330.586 1803.87 326.922 1803.87 323.257C1803.87 320.638 1803.87 318.018 1803.87 315.399C1803.86 309.012 1803.86 302.625 1803.86 296.239C1803.87 291.05 1803.87 285.862 1803.87 280.674C1803.87 279.936 1803.87 279.199 1803.87 278.439C1803.87 276.941 1803.87 275.443 1803.86 273.944C1803.86 259.888 1803.87 245.832 1803.87 231.776C1803.88 219.704 1803.87 207.631 1803.87 195.558C1803.86 181.55 1803.86 167.543 1803.87 153.535C1803.87 152.043 1803.87 150.551 1803.87 149.058C1803.87 148.324 1803.87 147.59 1803.87 146.834C1803.87 141.648 1803.87 136.462 1803.86 131.276C1803.86 124.304 1803.86 117.333 1803.87 110.361C1803.87 107.794 1803.87 105.227 1803.87 102.661C1803.86 99.1733 1803.87 95.6859 1803.87 92.1985C1803.87 91.1684 1803.87 90.1384 1803.87 89.0771C1803.87 88.1504 1803.87 87.2237 1803.87 86.2689C1803.87 85.4628 1803.87 84.6568 1803.87 83.8263C1804.14 79.8892 1807.09 80.8609 1810.39 80.8389ZM1838 111C1838 142.68 1838 174.36 1838 207C1854.56 197.396 1854.56 197.396 1865 182C1865.31 179.082 1865.31 179.082 1865.29 175.944C1865.3 174.746 1865.32 173.547 1865.33 172.313C1865.33 171.026 1865.33 169.74 1865.34 168.414C1865.34 167.07 1865.35 165.727 1865.36 164.383C1865.37 161.57 1865.37 158.758 1865.37 155.945C1865.37 152.355 1865.4 148.766 1865.43 145.176C1865.45 142.402 1865.46 139.627 1865.46 136.853C1865.46 134.89 1865.48 132.928 1865.5 130.965C1865.47 124.171 1865.43 119.334 1861 114C1853.58 109.733 1853.58 109.733 1838 111Z" fill="#253B49"></path><path d="M1479 81C1509.03 81 1539.06 81 1570 81C1570 90.9 1570 100.8 1570 111C1567.41 112.294 1565.62 112.081 1562.72 112.022C1561.61 112.001 1560.49 111.981 1559.34 111.96C1558.16 111.933 1556.99 111.906 1555.77 111.879C1554.15 111.848 1554.15 111.848 1552.5 111.816C1548.46 111.737 1544.42 111.649 1540.38 111.562C1531.34 111.377 1522.31 111.191 1513 111C1513 135.75 1513 160.5 1513 186C1522.9 186 1532.8 186 1543 186C1543.66 186.33 1544.32 186.66 1545 187C1545.02 191.805 1545.04 196.611 1545.05 201.417C1545.06 203.052 1545.07 204.687 1545.08 206.323C1545.09 208.671 1545.09 211.019 1545.1 213.367C1545.1 214.101 1545.11 214.834 1545.11 215.59C1545.11 220.772 1545.11 220.772 1544 223C1540.68 224.108 1538.19 224.133 1534.69 224.125C1533.02 224.129 1533.02 224.129 1531.32 224.133C1525.21 223.945 1519.1 223.436 1513 223C1513 255.01 1513 287.02 1513 320C1531.71 319.96 1531.71 319.96 1550.43 319.91C1552.76 319.907 1555.1 319.904 1557.43 319.902C1559.27 319.895 1559.27 319.895 1561.15 319.887C1562.3 319.887 1563.46 319.887 1564.65 319.886C1565.66 319.884 1566.67 319.882 1567.72 319.88C1570 320 1570 320 1571 321C1571.09 323.146 1571.11 325.294 1571.1 327.441C1571.09 329.399 1571.09 329.399 1571.09 331.396C1571.08 332.785 1571.07 334.174 1571.06 335.562C1571.06 336.955 1571.05 338.348 1571.05 339.74C1571.04 343.16 1571.02 346.58 1571 350C1567.78 351.61 1564.26 351.138 1560.73 351.129C1559.87 351.131 1559.02 351.133 1558.13 351.135C1555.3 351.139 1552.46 351.136 1549.62 351.133C1547.66 351.133 1545.69 351.134 1543.73 351.136C1539.61 351.137 1535.48 351.135 1531.36 351.13C1526.07 351.125 1520.78 351.128 1515.48 351.134C1511.42 351.138 1507.36 351.136 1503.3 351.134C1501.35 351.133 1499.4 351.134 1497.45 351.136C1494.72 351.139 1492 351.135 1489.27 351.129C1488.46 351.131 1487.65 351.133 1486.81 351.136C1481.23 351.114 1481.23 351.114 1479 350C1479 261.23 1479 172.46 1479 81Z" fill="#243B49"></path><path d="M1895 81C1899.81 80.9259 1904.61 80.8714 1909.42 80.8352C1911.05 80.8201 1912.69 80.7996 1914.32 80.7737C1916.67 80.7373 1919.02 80.7203 1921.37 80.707C1922.1 80.6915 1922.83 80.676 1923.59 80.6601C1925.65 80.6594 1925.65 80.6594 1929 81C1931.23 84.342 1931.68 86.7019 1932.44 90.625C1933.37 95.4753 1934.63 100.017 1936.23 104.675C1937.5 108.507 1938.5 112.405 1939.5 116.312C1939.72 117.145 1939.93 117.977 1940.16 118.835C1941.81 125.214 1943.42 131.603 1945 138C1945.73 140.917 1946.46 143.833 1947.19 146.75C1947.54 148.141 1947.88 149.531 1948.23 150.922C1948.48 151.938 1948.74 152.953 1949 154C1950.52 149.648 1951.45 145.583 1952 141C1952.66 141 1953.32 141 1954 141C1954 138.69 1954 136.38 1954 134C1954.66 134 1955.32 134 1956 134C1955.94 133.196 1955.88 132.391 1955.81 131.562C1955.97 128.481 1956.34 126.734 1957.36 123.918C1959.07 118.928 1960.32 113.889 1961.5 108.75C1961.72 107.835 1961.93 106.92 1962.15 105.977C1963.1 101.951 1964.02 97.9229 1964.92 93.8867C1965.17 92.7485 1965.43 91.6102 1965.69 90.4375C1966 88.9815 1966 88.9815 1966.32 87.4961C1967 85 1967 85 1969 81C1980.22 81 1991.44 81 2003 81C2003 87.0279 2002.56 90.4531 2001 96C2000.34 96 1999.68 96 1999 96C1999.04 97.0106 1999.08 98.0212 1999.12 99.0625C1999.02 102.357 1998.56 104.782 1997.63 107.892C1996.9 110.335 1996.23 112.79 1995.56 115.25C1995.18 116.658 1995.18 116.658 1994.79 118.094C1994.53 119.053 1994.27 120.012 1994 121C1991.21 131.273 1991.21 131.273 1989.9 135.785C1989 138.986 1988.27 142.189 1987.56 145.437C1986.41 150.525 1984.92 155.159 1983 160C1981.29 165.654 1979.92 171.376 1978.56 177.125C1978.34 178.052 1978.12 178.979 1977.9 179.934C1976.94 183.945 1976 187.956 1975.11 191.98C1973.8 197.901 1972.23 203.366 1970 209C1967.56 215.644 1967.69 222.07 1967.68 229.095C1967.67 230.403 1967.66 231.711 1967.65 233.059C1967.62 236.629 1967.61 240.198 1967.6 243.768C1967.58 247.505 1967.55 251.242 1967.53 254.979C1967.48 262.048 1967.44 269.117 1967.41 276.185C1967.37 284.236 1967.32 292.287 1967.27 300.338C1967.17 316.892 1967.08 333.446 1967 350C1964.05 351.477 1961.39 351.13 1958.09 351.133C1957.41 351.134 1956.73 351.135 1956.03 351.136C1954.59 351.136 1953.15 351.135 1951.71 351.13C1949.51 351.125 1947.3 351.13 1945.1 351.137C1943.7 351.136 1942.3 351.135 1940.91 351.133C1939.63 351.132 1938.36 351.131 1937.04 351.129C1934 351 1934 351 1932 350C1932 349.341 1932 348.683 1932 348.004C1931.98 331.9 1931.94 315.796 1931.87 299.692C1931.83 291.904 1931.81 284.115 1931.8 276.327C1931.8 269.53 1931.78 262.734 1931.74 255.937C1931.72 252.346 1931.71 248.755 1931.71 245.164C1931.76 224.526 1931.76 224.526 1927.07 204.552C1925.95 200.849 1925.81 197.844 1926 194C1925.34 194 1924.68 194 1924 194C1923.82 193.082 1923.64 192.164 1923.45 191.219C1921.98 183.538 1921.98 183.538 1919.56 176.125C1917.78 171.756 1916.74 167.214 1915.63 162.64C1914.68 158.727 1913.69 154.832 1912.63 150.949C1912.29 149.682 1912.29 149.682 1911.94 148.39C1911.49 146.749 1911.03 145.109 1910.57 143.471C1909.42 139.198 1908.74 135.474 1909 131C1908.34 131 1907.68 131 1907 131C1907 128.69 1907 126.38 1907 124C1906.34 124 1905.68 124 1905 124C1904.85 122.515 1904.85 122.515 1904.69 121C1904.2 117.567 1903.11 114.593 1901.82 111.371C1900.43 107.351 1899.61 103.199 1898.69 99.0469C1898.17 96.7402 1897.54 94.456 1896.88 92.1875C1895.85 88.4455 1895.45 84.8535 1895 81Z" fill="#243B49"></path><path d="M882 81C893.22 81 904.44 81 916 81C917.32 85.95 918.64 90.9 920 96C921.135 99.8154 921.135 99.8154 922.289 103.625C923.322 107.076 924.25 110.553 925.188 114.031C926.077 117.279 927.005 120.514 927.938 123.75C929.384 128.805 930.809 133.864 932.188 138.938C932.673 140.714 932.673 140.714 933.168 142.527C934.002 146.009 934.551 149.45 935 153C936.588 148.521 938.042 144.097 939 139.438C939.597 136.572 940.34 133.962 941.438 131.25C943.262 126.666 944.187 121.925 945.242 117.117C945.879 114.5 946.626 112.119 947.625 109.625C949.027 105.93 949.594 102.899 950 99C950.66 99 951.32 99 952 99C952.074 98.0564 952.074 98.0564 952.149 97.0938C952.223 96.2378 952.298 95.3819 952.375 94.5C952.445 93.6647 952.514 92.8294 952.586 91.9688C953.103 88.2609 954.092 84.632 955 81C966.55 81 978.1 81 990 81C988.785 87.0748 987.561 93.1053 986.125 99.125C985.954 99.8437 985.784 100.562 985.608 101.303C985.075 103.536 984.538 105.768 984 108C983.827 108.722 983.654 109.443 983.475 110.187C981.804 117.122 980.105 123.984 977.719 130.715C976.454 134.737 975.627 138.864 974.746 142.984C974 146 974 146 973.024 148.41C971.701 151.756 970.962 155.185 970.188 158.688C968.582 165.746 966.751 172.715 964.751 179.671C963.498 184.06 962.422 188.452 961.488 192.921C960.985 195.066 960.34 197.104 959.625 199.188C955.899 210.105 953.404 219.882 953.486 231.475C953.475 233.373 953.475 233.373 953.464 235.309C953.449 238.028 953.446 240.746 953.453 243.464C953.464 247.763 953.446 252.062 953.425 256.362C953.395 263.154 953.383 269.946 953.38 276.738C953.373 288.93 953.344 301.121 953.295 313.313C953.278 317.587 953.273 321.861 953.276 326.136C953.277 329.406 953.265 332.677 953.256 335.948C953.26 337.131 953.264 338.314 953.268 339.532C953.263 340.61 953.257 341.688 953.252 342.798C953.251 344.205 953.251 344.205 953.251 345.64C953 348 953 348 951 351C947.943 351.356 947.943 351.356 944.059 351.328C943.034 351.325 943.034 351.325 941.989 351.322C940.546 351.316 939.103 351.302 937.66 351.281C935.443 351.25 933.227 351.24 931.01 351.234C920.164 351.163 920.164 351.163 919 350C918.894 348.358 918.858 346.712 918.849 345.067C918.84 343.999 918.832 342.931 918.823 341.83C918.817 340.057 918.817 340.057 918.811 338.248C918.802 337.01 918.794 335.773 918.786 334.498C918.768 331.8 918.753 329.101 918.74 326.403C918.72 322.133 918.692 317.863 918.663 313.594C918.603 304.521 918.551 295.448 918.5 286.375C918.445 276.601 918.388 266.828 918.323 257.054C918.294 252.814 918.271 248.573 918.251 244.333C918.234 241.065 918.211 237.797 918.19 234.529C918.185 233.359 918.181 232.188 918.177 230.983C918.119 223.447 917.847 217.034 915 210C914.44 207.638 913.942 205.271 913.465 202.891C913.173 201.001 913.173 201.001 912 200C911.959 197.667 911.958 195.333 912 193C911.34 193 910.68 193 910 193C909.781 192.1 909.562 191.2 909.336 190.273C907.046 180.957 904.584 171.697 902.019 162.453C901.772 161.557 901.525 160.661 901.27 159.738C901.049 158.945 900.828 158.151 900.601 157.333C900.18 155.698 899.812 154.048 899.483 152.391C899.024 149.869 899.024 149.869 898 147C898.495 145.515 898.495 145.515 899 144C898.34 144 897.68 144 897 144C896.818 143.082 896.637 142.164 896.449 141.219C895.08 134.533 893.551 128.322 891 122C889.37 116.541 887.981 111.032 886.617 105.501C885.706 101.819 884.78 98.1418 883.817 94.4727C883.628 93.7443 883.439 93.0159 883.244 92.2654C882.879 90.8598 882.508 89.4556 882.132 88.053C880.888 83.2248 880.888 83.2248 882 81Z" fill="#243B49"></path><path d="M1267 81C1299.01 81 1331.02 81 1364 81C1364 90.9 1364 100.8 1364 111C1353.77 111 1343.54 111 1333 111C1333 189.87 1333 268.74 1333 350C1330.05 351.477 1327.39 351.13 1324.09 351.133C1323.41 351.134 1322.73 351.135 1322.03 351.136C1320.59 351.136 1319.15 351.135 1317.71 351.13C1315.51 351.125 1313.3 351.13 1311.1 351.137C1309.7 351.136 1308.3 351.135 1306.91 351.133C1305.63 351.132 1304.36 351.131 1303.04 351.129C1300 351 1300 351 1298 350C1298 271.13 1298 192.26 1298 111C1287.77 111 1277.54 111 1267 111C1267 101.1 1267 91.2 1267 81Z" fill="#263C4A"></path><path d="M1032 81C1043.22 81 1054.44 81 1066 81C1066 159.87 1066 238.74 1066 320C1084.48 320 1102.96 320 1122 320C1122.66 320.33 1123.32 320.66 1124 321C1124 330.57 1124 340.14 1124 350C1120.78 351.609 1117.28 351.138 1113.74 351.129C1112.89 351.131 1112.04 351.133 1111.16 351.135C1108.32 351.139 1105.49 351.136 1102.66 351.133C1100.7 351.133 1098.73 351.134 1096.77 351.136C1092.65 351.137 1088.53 351.135 1084.42 351.13C1079.13 351.125 1073.85 351.128 1068.56 351.134C1064.51 351.138 1060.45 351.136 1056.4 351.134C1054.45 351.133 1052.5 351.134 1050.55 351.136C1047.83 351.139 1045.11 351.135 1042.39 351.129C1041.58 351.131 1040.77 351.133 1039.94 351.136C1036.7 351.123 1034.1 351.032 1031 350C1030.98 315.875 1030.96 281.751 1030.95 247.626C1030.95 243.602 1030.95 239.577 1030.95 235.553C1030.94 234.752 1030.94 233.951 1030.94 233.125C1030.94 220.134 1030.93 207.144 1030.92 194.153C1030.91 180.834 1030.91 167.514 1030.91 154.195C1030.9 145.969 1030.9 137.744 1030.89 129.518C1030.89 123.886 1030.89 118.253 1030.89 112.62C1030.89 109.365 1030.89 106.111 1030.88 102.856C1030.88 99.3354 1030.88 95.815 1030.88 92.2946C1030.88 91.2547 1030.87 90.2148 1030.87 89.1435C1030.87 88.2079 1030.88 87.2724 1030.88 86.3085C1030.88 85.0879 1030.88 85.0879 1030.88 83.8426C1031 82 1031 82 1032 81Z" fill="#233947"></path><path d="M327 258C327.99 258 328.98 258 330 258C335.043 264.054 338.054 272.146 341.284 279.285C343.158 283.461 343.158 283.461 346 287C346 288.32 346 289.64 346 291C346.66 291.33 347.32 291.66 348 292C352.539 298.244 355.626 305.358 358.829 312.34C361.144 317.33 363.681 322.117 366.438 326.875C369.879 332.837 372.99 338.904 375.938 345.125C376.315 345.919 376.693 346.713 377.082 347.531C378.626 350.834 380.005 354.016 381.129 357.492C381.727 360.154 381.727 360.154 384 361C385.281 363.168 386.469 365.329 387.625 367.562C387.978 368.234 388.33 368.905 388.694 369.596C391.506 374.977 394.226 380.403 396.911 385.849C398.712 389.486 400.568 393.082 402.504 396.648C402.92 397.417 403.336 398.185 403.764 398.977C404.571 400.461 405.385 401.941 406.207 403.417C408.128 406.954 409 408.891 409 413C408.178 413.315 407.355 413.629 406.508 413.953C400.45 416.276 394.406 418.617 388.414 421.105C370.199 427.855 347.502 433.657 328 432C327 431 327 431 326.877 428.175C326.878 426.9 326.879 425.625 326.88 424.312C326.879 423.605 326.878 422.897 326.877 422.169C326.876 419.781 326.881 417.393 326.887 415.006C326.887 413.301 326.887 411.596 326.886 409.892C326.886 405.25 326.892 400.607 326.899 395.965C326.905 391.119 326.906 386.273 326.907 381.427C326.91 372.243 326.918 363.06 326.928 353.877C326.939 343.425 326.945 332.973 326.95 322.521C326.96 301.014 326.978 279.507 327 258Z" fill="#263C4A"></path><path d="M309 260C309.023 282.278 309.041 304.557 309.052 326.835C309.057 337.179 309.064 347.522 309.075 357.865C309.085 366.877 309.092 375.889 309.094 384.901C309.095 389.676 309.098 394.451 309.105 399.226C309.112 403.715 309.114 408.203 309.113 412.692C309.113 414.345 309.115 415.997 309.119 417.65C309.124 419.896 309.123 422.142 309.12 424.388C309.121 425.648 309.122 426.908 309.123 428.206C309 431 309 431 308 432C305.321 432.129 302.679 432.185 300 432.188C299.269 432.2 298.538 432.212 297.785 432.225C292.255 432.239 287.351 431.31 282 430C279.821 429.527 277.641 429.06 275.461 428.598C273.099 428.086 270.737 427.574 268.375 427.062C267.186 426.81 265.998 426.558 264.773 426.299C258.846 425.006 253.475 423.61 248 421C246.57 420.498 245.133 420.015 243.687 419.562C240.276 418.435 236.874 417.295 233.5 416.062C232.664 415.765 231.829 415.467 230.968 415.16C229 414 229 414 228.047 412.238C227.979 408.987 229.227 406.975 230.75 404.125C231.281 403.117 231.812 402.109 232.359 401.07C232.901 400.057 233.442 399.044 234 398C235.005 396.003 236.007 394.004 237 392C237.66 392 238.32 392 239 392C239.089 391.158 239.178 390.316 239.269 389.449C240.11 385.481 241.722 382.31 243.687 378.812C244.048 378.152 244.409 377.493 244.781 376.812C246.376 373.901 247.998 371.004 249.617 368.105C253.796 360.572 257.427 352.834 261 345C261.66 345 262.32 345 263 345C263 343.68 263 342.36 263 341C263.66 341 264.32 341 265 341C265.227 340.031 265.453 339.061 265.687 338.062C266.775 334.282 268.486 331.163 270.453 327.773C272.388 324.304 274.125 320.753 275.875 317.188C278.844 311.168 282.05 305.357 285.484 299.586C287.506 296.136 289.258 292.596 291 289C292.4 286.193 293.804 283.387 295.211 280.584C296.805 277.404 298.383 274.219 299.937 271.02C300.251 270.378 300.565 269.736 300.889 269.075C301.77 267.274 302.645 265.471 303.519 263.668C305.146 260.736 305.667 260 309 260Z" fill="#243C4A"></path><path d="M288 250C288.99 250.495 288.99 250.495 290 251C289.591 255.364 287.771 258.093 285.445 261.66C282.611 266.249 280.365 271.158 278 276C273.386 285.442 268.576 294.729 263.413 303.885C261.164 307.876 259.012 311.882 257 316C253.075 323.928 249.13 331.834 244.938 339.625C238.266 351.507 238.266 351.507 233 364C232.34 364 231.68 364 231 364C230.773 364.784 230.546 365.567 230.312 366.375C228.971 370.079 227.35 373.449 225.555 376.949C224.369 379.276 223.211 381.609 222.07 383.957C221.729 384.655 221.387 385.352 221.036 386.071C220.363 387.446 219.694 388.823 219.031 390.203C216.752 394.827 214.087 398.868 211 403C200.854 400.693 190.792 392.783 183 386C183 385.34 183 384.68 183 384C182.277 383.756 181.554 383.513 180.809 383.262C173.802 380.114 168.286 373.587 163.512 367.691C161.149 365.048 158.403 362.884 155.637 360.676C153.799 358.795 153.386 357.567 153 355C154.245 353.87 155.496 352.746 156.75 351.625C157.446 350.999 158.142 350.372 158.859 349.727C161 348 161 348 163.016 347.023C165.512 345.736 167.038 344.006 169 342C170.894 340.471 172.814 338.974 174.75 337.5C175.311 337.071 175.873 336.643 176.451 336.201C181.592 332.285 186.772 328.421 191.955 324.56C197.276 320.581 202.501 316.489 207.66 312.301C211.784 309 211.784 309 214 309C214 308.34 214 307.68 214 307C214.66 307 215.32 307 216 307C216 306.34 216 305.68 216 305C218.266 303.09 218.266 303.09 221.25 300.938C222.225 300.225 223.199 299.512 224.203 298.777C226.613 297.246 228.221 296.43 231 296C231 295.34 231 294.68 231 294C231.784 293.752 232.567 293.505 233.375 293.25C236.103 292.293 236.103 292.293 236.863 290.148C238.361 287.317 240.18 286.187 242.812 284.375C247.071 281.377 251.259 278.315 255.375 275.125C255.912 274.71 256.45 274.294 257.003 273.866C258.105 273.014 259.206 272.162 260.308 271.309C262.049 269.962 263.793 268.621 265.539 267.281C266.119 266.836 266.698 266.391 267.295 265.933C267.858 265.501 268.42 265.07 269 264.625C271.954 262.358 274.888 260.093 277.75 257.711C280 256 280 256 282 256C282 255.34 282 254.68 282 254C283.32 253.67 284.64 253.34 286 253C286 252.34 286 251.68 286 251C286.66 250.67 287.32 250.34 288 250Z" fill="#243B4A"></path><path d="M348 250C352.312 252.368 356.337 254.67 360 258C360 258.66 360 259.32 360 260C360.695 260.237 361.39 260.474 362.105 260.719C365.522 262.231 368.358 264.252 371.312 266.5C372.137 267.105 372.137 267.105 372.979 267.723C374.36 268.763 375.686 269.876 377 271C377 271.66 377 272.32 377 273C377.554 273.255 378.109 273.51 378.68 273.773C386.271 277.786 392.982 283.725 399.637 289.105C405.523 293.996 405.523 293.996 412 298C412 298.66 412 299.32 412 300C412.583 300.274 413.167 300.548 413.768 300.831C415.943 301.97 417.771 303.221 419.719 304.711C420.416 305.243 421.114 305.775 421.832 306.323C425.396 309.08 428.952 311.848 432.5 314.625C438.43 319.256 444.4 323.822 450.438 328.312C455.858 332.346 461.135 336.505 466.324 340.836C468.281 342.419 470.239 343.932 472.27 345.414C472.818 345.815 473.367 346.217 473.933 346.63C475.472 347.747 477.019 348.852 478.566 349.957C480.893 351.91 481.936 353.198 483 356C482.34 356.99 481.68 357.98 481 359C480.34 359 479.68 359 479 359C478.597 359.89 478.597 359.89 478.186 360.798C476.997 363.005 475.793 364.465 474.031 366.234C473.175 367.095 473.175 367.095 472.301 367.973C471.707 368.559 471.112 369.146 470.5 369.75C469.906 370.352 469.311 370.954 468.699 371.574C468.128 372.143 467.557 372.711 466.969 373.297C466.447 373.816 465.926 374.335 465.389 374.87C464 376 464 376 462 376C461.752 376.619 461.505 377.238 461.25 377.875C459.74 380.442 458.639 380.718 456 382C455.248 382.754 454.497 383.508 453.723 384.285C446.365 391.622 436.414 399.768 426 402C420.716 395.391 417.197 388.456 413.694 380.809C410.677 374.284 407.353 367.977 403.875 361.688C399.375 353.548 395.077 345.359 391 337C388.633 332.2 386.142 327.473 383.625 322.75C381.224 318.231 378.825 313.716 376.562 309.125C370.888 297.64 364.747 286.379 358.697 275.089C356.415 270.816 354.23 266.503 352.102 262.152C351.03 260.058 349.852 258.069 348.625 256.062C348.089 255.052 347.553 254.041 347 253C347.33 252.01 347.66 251.02 348 250Z" fill="#243B4A"></path><path d="M274 236C272.479 239.873 270.307 241.538 267 244C266.255 244.597 265.51 245.194 264.742 245.809C263.941 246.449 263.139 247.09 262.313 247.75C261.546 248.364 260.779 248.977 259.989 249.609C258 251 258 251 256 251C255.67 251.99 255.34 252.98 255 254C252.72 255.831 250.458 257.523 248.063 259.187C247.416 259.651 246.77 260.114 246.104 260.592C241.27 264 241.27 264 239 264C238.67 264.99 238.34 265.98 238 267C236.289 268.527 236.289 268.527 234.055 270.152C233.232 270.758 232.41 271.364 231.562 271.988C230.676 272.632 229.789 273.275 228.875 273.937C227.04 275.288 225.207 276.641 223.375 277.996C222.464 278.67 221.553 279.344 220.614 280.039C216.966 282.776 213.414 285.623 209.875 288.5C205.04 292.425 200.136 296.134 194.953 299.598C193.091 300.935 191.583 302.349 190 304C186.334 307 186.334 307 184 307C183.794 307.619 183.588 308.237 183.375 308.875C181.453 311.847 179.334 312.13 176 313C176 313.66 176 314.32 176 315C174.602 316.227 174.602 316.227 172.625 317.625C168.385 320.688 164.338 323.945 160.297 327.266C158.241 328.818 156.297 329.869 154 331C152.312 332.645 150.647 334.313 149 336C144.779 340.01 144.779 340.01 141.59 339.969C137.886 338.583 137.015 336.518 135.063 333.125C134.722 332.542 134.382 331.959 134.031 331.359C133.001 329.583 131.996 327.795 131 326C130.437 324.989 129.874 323.979 129.293 322.937C128.287 321.103 127.29 319.264 126.305 317.418C125.21 315.388 124.063 313.413 122.875 311.437C120.505 307.093 118.776 302.612 117 298C116.335 296.375 115.668 294.75 115 293.125C113.478 289.299 112.049 285.449 110.688 281.562C110.168 280.079 110.168 280.079 109.637 278.566C109 276 109 276 110 273C113.984 270.787 117.548 269.84 122.039 269.191C130.981 267.757 139.754 265.58 148.563 263.5C151.98 262.695 155.398 261.892 158.817 261.094C160.033 260.81 160.033 260.81 161.273 260.52C166.486 259.315 171.703 258.246 176.984 257.377C179.194 257.011 179.194 257.011 182 256C185.844 254.719 189.714 254.117 193.707 253.465C195.956 253.229 195.956 253.229 197 252C198.971 251.566 200.953 251.181 202.938 250.812C211.622 249.159 220.213 247.123 228.811 245.07C234.548 243.719 240.145 242.654 246 242C248.005 241.346 250.004 240.679 252 240C253.663 239.648 255.33 239.317 257 239C260.8 238.275 264.352 237.303 268 236C271.724 234.862 271.724 234.862 274 236Z" fill="#253B4A"></path><path d="M363 236C369.267 236.431 374.981 237.105 381 239C383.127 239.508 385.261 239.975 387.398 240.438C393.868 241.836 400.316 243.304 406.754 244.84C407.817 245.093 407.817 245.093 408.902 245.351C414.89 246.776 414.89 246.776 417.761 247.466C427.004 249.684 436.246 251.688 445.6 253.377C449.765 254.14 453.877 255.038 458 256C458.951 256.213 458.951 256.213 459.922 256.43C462 257 462 257 464.295 257.964C466.995 258.998 469.522 259.609 472.359 260.148C473.385 260.347 474.411 260.546 475.467 260.751C476.551 260.957 477.634 261.163 478.75 261.375C487.717 263.117 496.61 265.009 505.477 267.203C508.975 267.994 512.445 268.532 516 269C518.125 269.438 518.125 269.438 520 270C520.887 270.248 521.774 270.495 522.688 270.75C525 272 525 272 525.809 274.043C526.082 278.273 524.789 281.61 523.375 285.562C523.093 286.37 522.811 287.178 522.52 288.011C521.695 290.346 520.851 292.674 520 295C519.639 296.014 519.278 297.029 518.906 298.074C516.221 305.042 512.665 311.563 509.125 318.125C508.384 319.503 508.384 319.503 507.628 320.909C504.149 327.246 500.258 333.159 496 339C491.848 338.285 489.729 337.31 486.5 334.562C482.436 331.182 478.323 327.899 474.125 324.688C473.304 324.057 473.304 324.057 472.467 323.414C470.207 321.681 467.95 319.965 465.617 318.332C465.084 317.892 464.55 317.453 464 317C464 316.34 464 315.68 464 315C463.305 314.763 462.61 314.526 461.895 314.281C458.478 312.769 455.642 310.748 452.688 308.5C452.138 308.097 451.588 307.693 451.021 307.277C449.64 306.237 448.314 305.124 447 304C447 303.34 447 302.68 447 302C446.257 301.752 445.515 301.505 444.75 301.25C441.782 299.901 440.245 298.319 438 296C436.515 295.505 436.515 295.505 435 295C435 294.34 435 293.68 435 293C434.103 292.845 434.103 292.845 433.188 292.688C430.671 291.897 429.762 290.916 428 289C427.01 288.34 426.02 287.68 425 287C425 286.34 425 285.68 425 285C424.414 284.723 423.827 284.446 423.223 284.161C421.111 283.058 419.323 281.861 417.426 280.426C416.762 279.926 416.098 279.426 415.414 278.912C414.721 278.384 414.027 277.856 413.312 277.312C412.602 276.774 411.892 276.236 411.16 275.682C409.75 274.612 408.34 273.541 406.932 272.468C405.278 271.211 403.614 269.966 401.949 268.723C400.737 267.808 400.737 267.808 399.5 266.875C398.809 266.357 398.118 265.839 397.406 265.305C396.942 264.874 396.478 264.444 396 264C396 263.34 396 262.68 396 262C395.131 261.763 394.262 261.526 393.367 261.281C389.623 259.857 387.193 258.061 384.125 255.5C383.158 254.706 382.191 253.912 381.195 253.094C380.471 252.403 379.746 251.712 379 251C379 250.34 379 249.68 379 249C377.68 248.67 376.36 248.34 375 248C375 247.34 375 246.68 375 246C374.443 245.732 373.886 245.464 373.312 245.188C369.724 243.345 366.355 241.237 363 239C363 238.01 363 237.02 363 236Z" fill="#243B4A"></path></g><defs><clipPath id="clip0_78_23"><rect width="2010" height="434" fill="white"></rect></clipPath></defs></svg>